<?xml version="1.0" encoding="UTF-8" standalone="no"?>
<!-- Created with Inkscape (http://www.inkscape.org/) -->

<svg
   width="105"
   height="40"
   viewBox="0 0 27.781249 10.583333"
   version="1.1"
   id="svg940"
   inkscape:version="1.1.2 (0a00cf5339, 2022-02-04)"
   sodipodi:docname="logoMedium.svg"
   xmlns:inkscape="http://www.inkscape.org/namespaces/inkscape"
   xmlns:sodipodi="http://sodipodi.sourceforge.net/DTD/sodipodi-0.dtd"
   xmlns="http://www.w3.org/2000/svg"
   xmlns:svg="http://www.w3.org/2000/svg">
  <sodipodi:namedview
     id="namedview942"
     pagecolor="#ffffff"
     bordercolor="#cccccc"
     borderopacity="1"
     inkscape:pageshadow="0"
     inkscape:pageopacity="1"
     inkscape:pagecheckerboard="0"
     inkscape:document-units="mm"
     showgrid="false"
     inkscape:lockguides="true"
     inkscape:zoom="5.3216332"
     inkscape:cx="63.608292"
     inkscape:cy="7.1406649"
     inkscape:window-width="1360"
     inkscape:window-height="707"
     inkscape:window-x="0"
     inkscape:window-y="31"
     inkscape:window-maximized="1"
     inkscape:current-layer="layer1"
     units="px" />
  <defs
     id="defs937" />
  <g
     inkscape:label="Camada 1"
     inkscape:groupmode="layer"
     id="layer1">
    <g
       aria-label="PATRICIA ALMEIDA"
       id="text1799"
       style="font-size:107.404px;font-family:GeosansLight;-inkscape-font-specification:GeosansLight;fill:#000000;stroke-width:0.916686"
       transform="matrix(0.03633906,0,0,0.03778293,-2.941838,-5.3541706)">
      <path
         d="m 120.47989,362.20833 q 0,-8.69972 -6.01463,-13.85512 -6.01462,-5.15539 -14.821749,-5.15539 H 80.955215 v 76.68646 h 4.29616 v -38.34323 h 14.392136 q 8.807129,0 14.821749,-5.3702 6.01463,-5.15539 6.01463,-13.96252 z m -4.40357,0 q 0,6.98126 -4.72577,11.06261 -4.72578,3.86655 -11.814443,3.86655 H 85.251375 v -29.5361 h 14.284732 q 7.196063,0 11.599633,3.65173 4.94058,3.97395 4.94058,10.95521 z"
         id="path457" />
      <path
         d="m 173.21527,419.88428 -30.71754,-79.15675 -30.61014,79.15675 h 4.29616 l 8.91453,-22.98446 h 34.9063 l 8.80713,22.98446 z m -15.03656,-27.38802 h -31.36197 l 15.68099,-40.59871 z"
         id="path454" />
      <path
         d="m 206.08074,347.60139 v -4.40357 h -38.34323 v 4.40357 h 16.96984 v 72.28289 h 4.40356 v -72.28289 z"
         id="path451" />
      <path
         d="m 254.51999,419.88428 -24.59552,-38.34323 q 4.61837,0 8.48492,-1.07404 3.86654,-1.18144 6.65904,-3.54433 2.89991,-2.36289 4.40357,-6.01463 1.61106,-3.65173 1.61106,-8.69972 0,-4.61837 -1.71847,-8.1627 -1.61106,-3.54434 -4.40356,-5.90722 -2.7925,-2.4703 -6.65905,-3.65174 -3.86654,-1.28885 -8.1627,-1.28885 h -17.72166 v 76.68646 h 4.29616 v -38.34323 h 8.27011 l 24.3807,38.34323 z m -7.9479,-57.78335 q 0,7.30347 -4.29616,11.17001 -4.18876,3.86655 -11.06261,3.86655 h -14.49954 v -29.5361 h 13.31809 q 3.43693,0 6.44424,0.96663 3.00732,0.85923 5.2628,2.6851 2.25548,1.71847 3.54433,4.51097 1.28885,2.6851 1.28885,6.33684 z"
         id="path448" />
      <path
         d="m 268.80463,419.88428 v -76.68646 h -4.29616 v 76.68646 z"
         id="path445" />
      <path
         d="m 343.34296,411.61417 v -5.04799 q -6.22943,4.51097 -10.31078,6.55165 -7.08866,3.43692 -16.64762,3.43692 -15.35877,0 -25.23994,-9.88116 -9.77376,-9.77377 -9.77376,-25.13254 0,-15.35877 9.88116,-25.23994 9.88117,-9.88117 25.13254,-9.88117 8.91453,0 17.07724,3.32953 5.3702,2.25548 9.88116,6.01462 v -5.4776 q -4.40356,-3.43693 -9.12934,-5.2628 -7.94789,-2.89991 -17.82906,-2.89991 -17.39945,0 -28.46206,11.06261 -10.95521,10.95521 -10.95521,28.35466 0,17.39945 11.06261,28.46206 10.95521,10.95521 28.35466,10.95521 1.50366,0 2.89991,-0.10741 1.39625,0 2.57769,-0.1074 10.31079,-0.96664 16.32541,-5.3702 z"
         id="path442" />
      <path
         d="m 353.97594,419.88428 v -76.68646 h -4.29616 v 76.68646 z"
         id="path439" />
      <path
         d="m 426.68837,419.88428 -30.71755,-79.15675 -30.61014,79.15675 h 4.29616 l 8.91453,-22.98446 h 34.9063 l 8.80713,22.98446 z m -15.03656,-27.38802 h -31.36197 l 15.68098,-40.59871 z"
         id="path436" />
      <path
         d="m 522.06297,419.88428 -30.71754,-79.15675 -30.61014,79.15675 h 4.29616 l 8.91453,-22.98446 h 34.9063 l 8.80713,22.98446 z m -15.03656,-27.38802 h -31.36197 l 15.68099,-40.59871 z"
         id="path433" />
      <path
         d="m 554.49897,419.88428 v -4.40357 h -21.5882 v -72.28289 h -4.29616 v 76.68646 z"
         id="path430" />
      <path
         d="m 653.31076,419.88428 -19.97714,-79.04935 -26.09918,68.52376 -26.09917,-68.41635 -19.97714,78.94194 h 4.40356 l 16.43281,-64.54981 25.23994,66.48308 25.23994,-66.37567 16.32541,64.4424 z"
         id="path427" />
      <path
         d="m 700.03151,419.88428 v -4.40357 H 667.5955 V 380.2522 h 32.43601 v -4.72577 H 667.5955 v -27.92504 h 32.43601 v -4.40357 h -36.83957 v 76.68646 z"
         id="path424" />
      <path
         d="m 713.45692,419.88428 v -76.68646 h -4.29616 v 76.68646 z"
         id="path421" />
      <path
         d="m 782.73243,381.43365 q 0,-15.78839 -9.12934,-26.6362 -9.66636,-11.59963 -25.13254,-11.59963 H 722.9084 v 76.68646 h 25.56215 q 15.57358,0 25.23994,-11.59963 9.02194,-10.95521 9.02194,-26.851 z m -4.40357,0 q 0,15.78838 -9.34414,25.23994 -8.69973,8.80712 -20.51417,8.80712 h -21.26599 v -67.98673 h 21.26599 q 13.64031,0 22.01782,10.31079 7.84049,9.55895 7.84049,23.62888 z"
         id="path418" />
      <path
         d="m 845.45637,419.88428 -30.71754,-79.15675 -30.61014,79.15675 h 4.29616 l 8.91453,-22.98446 h 34.9063 l 8.80713,22.98446 z m -15.03656,-27.38802 h -31.36197 l 15.68099,-40.59871 z"
         id="path415" />
    </g>
    <path
       id="path412"
       style="fill:#000000;stroke-width:0.0279321"
       d="M 18.99201,4.7849367 H 18.775603 V 3.0539704e-7 h 0.216407 z" />
    <path
       id="path409"
       style="fill:#000000;stroke-width:0.0279321"
       d="M 17.575016,4.7849367 H 17.358607 V 3.0539704e-7 h 0.216409 z" />
    <path
       id="path406"
       style="fill:#000000;stroke-width:0.0279321"
       d="M 16.157997,4.7849367 H 15.941589 V 3.0539704e-7 h 0.216408 z" />
    <path
       id="path403"
       style="fill:#000000;stroke-width:0.0279321"
       d="M 14.741003,4.7849367 H 14.524596 V 3.0539704e-7 h 0.216407 z" />
    <path
       id="path400"
       style="fill:#000000;stroke-width:0.0279321"
       d="M 8.7892398,4.7149293 V 4.489923 h 4.6020792 v 0.2250063 z" />
    <path
       id="path397"
       style="fill:#000000;stroke-width:0.0279321"
       d="M 8.7892398,3.2416253 V 3.0166191 h 4.6020792 v 0.2250062 z" />
    <path
       id="path394"
       style="fill:#000000;stroke-width:0.0279321"
       d="M 8.7892398,1.7683172 V 1.5433111 h 4.6020792 v 0.2250061 z" />
    <path
       id="path391"
       style="fill:#000000;stroke-width:0.0279321"
       d="M 8.7892398,0.29501138 V 0.07000526 h 4.6020792 v 0.22500612 z" />
  </g>
</svg>
